<?xml version="1.0" standalone="no"?>
<!DOCTYPE svg PUBLIC "-//W3C//DTD SVG 20010904//EN"
 "http://www.w3.org/TR/2001/REC-SVG-20010904/DTD/svg10.dtd">
<svg version="1.0" xmlns="http://www.w3.org/2000/svg"
 width="269.000000pt" height="269.000000pt" viewBox="0 0 269.000000 269.000000"
 preserveAspectRatio="xMidYMid meet">
<metadata>
Created by potrace 1.14, written by Peter Selinger 2001-2017
</metadata>
<g transform="translate(0.000000,269.000000) scale(0.100000,-0.100000)"
fill="#000000" stroke="none">
<path d="M1383 2548 l-121 -121 -85 43 c-78 39 -93 43 -179 48 -71 3 -109 0
-154 -13 -114 -33 -222 -114 -281 -212 -14 -25 -32 -43 -43 -43 -34 0 -162
-73 -218 -125 -116 -108 -171 -249 -158 -412 6 -81 5 -86 -19 -115 -60 -71
-125 -248 -125 -337 0 -63 29 -173 64 -246 46 -97 111 -172 201 -230 l76 -50
-3 -115 -3 -115 -80 -5 c-96 -6 -156 -36 -199 -99 -47 -67 -55 -105 -56 -253
l0 -138 1345 0 1345 0 0 138 c0 181 -10 212 -101 305 l-69 70 0 373 0 374 85
0 85 0 0 113 0 112 -588 588 c-323 323 -589 587 -592 587 -3 0 -60 -55 -127
-122z m1052 -1106 l-75 -3 0 -502 0 -502 31 -18 c17 -9 36 -31 42 -47 7 -17
19 -30 28 -30 34 0 59 -48 59 -111 l0 -59 -1175 0 -1175 0 0 59 c0 44 5 65 21
85 20 26 21 26 165 26 l144 0 0 258 0 258 -43 11 c-67 19 -164 89 -211 153
-60 81 -79 150 -74 259 5 109 35 177 114 258 l54 55 -21 59 c-43 117 -11 257
80 348 49 49 147 98 214 106 53 7 54 7 65 49 17 65 81 139 148 172 140 69 317
23 392 -101 15 -25 29 -45 32 -45 3 0 64 59 135 130 l130 130 498 -497 497
-498 -75 -3z"/>
</g>
</svg>
